<?xml version="1.0" standalone="no"?>
<!DOCTYPE svg PUBLIC "-//W3C//DTD SVG 20010904//EN"
 "http://www.w3.org/TR/2001/REC-SVG-20010904/DTD/svg10.dtd">
<svg version="1.0" xmlns="http://www.w3.org/2000/svg"
 width="1280.000000pt" height="926.000000pt" viewBox="0 0 1280.000000 926.000000"
 preserveAspectRatio="xMidYMid meet">
<metadata>
Created by potrace 1.15, written by Peter Selinger 2001-2017
</metadata>
<g transform="translate(0.000000,926.000000) scale(0.100000,-0.100000)"
fill="#000000" stroke="none">
<path d="M672 9234 c-135 -67 -208 -228 -296 -649 -61 -292 -61 -291 -153
-510 -159 -375 -207 -561 -220 -855 -15 -369 80 -727 311 -1176 180 -349 341
-560 571 -752 169 -141 401 -274 615 -353 193 -70 455 -125 715 -149 464 -42
1113 39 1706 216 64 18 118 34 121 34 2 0 -2 -30 -11 -67 -11 -50 -15 -119
-15 -258 1 -205 -4 -170 103 -665 12 -52 28 -169 36 -260 35 -383 38 -395 152
-654 112 -254 145 -422 145 -741 0 -249 -18 -342 -98 -505 -76 -155 -88 -197
-88 -305 0 -83 5 -103 57 -257 87 -255 88 -260 96 -558 7 -239 10 -271 30
-322 58 -148 226 -226 461 -215 240 12 385 88 439 231 41 110 26 136 -104 172
-162 46 -189 93 -231 409 -3 28 -19 104 -35 170 -45 187 -38 324 26 505 15 41
77 176 137 300 176 359 210 462 212 628 1 116 3 116 62 0 95 -188 133 -365
114 -542 -18 -177 -64 -308 -189 -542 -94 -174 -114 -238 -109 -334 6 -99 28
-139 131 -243 74 -74 89 -96 149 -219 69 -141 137 -238 282 -407 232 -268 476
-373 837 -359 184 8 248 41 295 153 45 108 38 217 -17 273 -55 56 -139 87
-387 142 -73 17 -155 41 -181 55 -91 45 -150 137 -184 279 -17 72 -13 310 7
451 23 159 46 204 233 443 91 117 142 202 286 477 64 121 134 243 156 272 42
55 102 93 146 93 115 0 240 -152 363 -445 92 -218 146 -409 231 -805 70 -322
116 -494 148 -549 65 -111 203 -219 345 -268 142 -50 309 -41 407 22 90 57
148 147 137 209 -16 82 -72 138 -295 289 -107 72 -105 67 -111 307 -3 113 -5
206 -4 208 0 1 18 -24 39 -55 80 -122 183 -252 276 -348 125 -131 150 -168
230 -357 178 -419 422 -623 724 -605 142 9 304 66 330 118 35 66 7 206 -56
282 -51 61 -97 79 -226 87 -91 5 -116 9 -133 25 -102 92 -186 451 -196 834 -2
90 -8 201 -13 245 -6 45 -11 104 -13 131 l-2 50 51 3 c33 2 107 -10 210 -34
l158 -37 170 9 c236 12 363 11 412 -4 69 -21 155 -94 239 -204 124 -162 222
-246 379 -323 108 -54 177 -72 299 -81 50 -3 116 -15 148 -25 55 -18 172 -81
182 -98 3 -4 -41 -16 -97 -25 -56 -9 -133 -26 -172 -36 -81 -23 -41 -19 95 9
52 10 120 22 150 26 52 5 57 4 98 -29 l43 -34 -58 -12 c-214 -42 -603 -168
-603 -195 0 -3 17 2 38 12 89 40 352 122 486 152 l145 33 60 -38 c33 -22 60
-42 60 -45 1 -3 -14 -12 -31 -21 -50 -24 -195 -136 -263 -202 l-60 -59 55 47
c76 64 227 178 272 205 l38 22 67 -27 c96 -40 223 -40 337 -1 127 45 227 98
282 152 45 43 53 58 64 110 6 33 16 71 22 84 18 46 101 162 157 220 52 54 165
144 193 154 7 2 10 7 7 11 -11 12 -147 -94 -219 -171 -40 -43 -91 -109 -114
-147 -23 -38 -46 -68 -50 -68 -5 1 -19 29 -31 64 -13 35 -33 90 -46 123 -26
70 -30 154 -11 265 26 149 0 287 -131 696 -77 240 -81 288 -33 382 27 53 251
338 330 421 l51 53 -80 -5 c-152 -11 -356 -77 -442 -143 -39 -29 -42 -23 -10
20 31 43 92 174 84 182 -20 20 -451 -75 -632 -140 -55 -20 -109 -36 -120 -36
-38 0 -159 67 -254 140 -52 39 -155 113 -230 162 -310 208 -489 359 -602 511
-37 50 -99 162 -173 313 -64 130 -138 272 -165 317 -93 153 -202 271 -305 332
-88 51 -117 56 -346 59 -248 3 -294 12 -465 95 -121 59 -227 133 -775 541
-481 358 -580 429 -735 527 -390 246 -714 378 -1085 444 -149 27 -487 37 -656
20 -446 -46 -841 -165 -1644 -498 -1006 -417 -1295 -506 -1705 -520 -512 -18
-902 184 -1179 610 -114 174 -220 422 -301 703 -57 198 -69 273 -62 409 9 181
53 307 226 651 112 221 121 260 121 513 0 443 -95 701 -258 701 -15 0 -51 -12
-80 -26z"/>
</g>
</svg>
